<?xml version="1.0" encoding="UTF-8" standalone="no"?>
<!-- Created with Inkscape (http://www.inkscape.org/) -->

<svg
   version="1.1"
   id="svg2"
   width="1750"
   height="1750"
   viewBox="0 0 1750 1750"
   sodipodi:docname="simplified.svg"
   inkscape:version="1.1.2 (0a00cf5339, 2022-02-04)"
   inkscape:export-filename="/home/ragnar/Downloads/icon.png"
   inkscape:export-xdpi="10.532572"
   inkscape:export-ydpi="10.532572"
   xmlns:inkscape="http://www.inkscape.org/namespaces/inkscape"
   xmlns:sodipodi="http://sodipodi.sourceforge.net/DTD/sodipodi-0.dtd"
   xmlns="http://www.w3.org/2000/svg"
   xmlns:svg="http://www.w3.org/2000/svg">
  <defs
     id="defs6" />
  <sodipodi:namedview
     id="namedview4"
     pagecolor="#ff0000"
     bordercolor="#666666"
     borderopacity="1.0"
     inkscape:pageshadow="2"
     inkscape:pageopacity="0"
     inkscape:pagecheckerboard="false"
     showgrid="false"
     inkscape:zoom="0.32275"
     inkscape:cx="703.54948"
     inkscape:cy="867.07659"
     inkscape:window-width="1920"
     inkscape:window-height="1080"
     inkscape:window-x="0"
     inkscape:window-y="0"
     inkscape:window-maximized="1"
     inkscape:current-layer="g23436"
     width="1750px" />
  <g
     inkscape:groupmode="layer"
     inkscape:label="Image"
     id="g8"
     style="display:inline"
     transform="translate(-166.40795,-136.82783)">
    <g
       id="g23436"
       transform="translate(-16.348263,-39.145934)">
      <g
         id="g828"
         transform="translate(39.265885,5.2355374)">
        <path
           id="rect20864"
           style="opacity:1;fill:#ffffff;stroke:#ffffff;stroke-width:0.581141"
           d="m 278.65273,274.37135 c 54.51424,-24.693 107.75626,-54.88811 163.04954,-76.21196 386.32342,-1.67603 772.90363,-5.9564 1159.06673,-6.00598 43.9199,10.82878 91.2369,15.19268 133.1142,29.90887 24.6796,29.02063 67.4847,48.0046 67.5533,90.65301 13.2194,70.79773 36.4549,140.58843 29.4146,213.4231 -2.1015,405.4496 -4.203,810.89921 -6.3045,1216.34881 -20.6283,40.4249 -23.8562,93.4272 -66.2808,118.0971 -19.0559,25.7193 -46.781,27.744 -76.3523,24.7228 -454.2439,1.3572 -908.48786,2.7145 -1362.73178,4.0718 -31.73962,-24.9071 -80.47688,-34.5434 -91.87648,-77.724 -15.99357,-29.7689 -31.26564,-59.7017 -24.98774,-94.5295 0.0655,-437.3021 0.13095,-874.60427 0.19642,-1311.90641 25.3796,-43.61588 50.75921,-87.23176 76.13881,-130.84764 z"
           sodipodi:nodetypes="cccccccccccccc"
           inkscape:export-filename="/home/ragnar/Downloads/simplified.png"
           inkscape:export-xdpi="226.60001"
           inkscape:export-ydpi="226.60001" />
        <path
           id="path1400"
           style="fill:#000000;stroke:#000000;stroke-width:1"
           d="m 650.54198,177.21348 c -106.73643,1.27864 -213.97466,-1.50467 -310.6195,43.79378 -47.54064,20.15617 -92.29132,56.80452 -110.8086,106.18164 -40.87918,63.98849 -34.77981,142.25964 -44.21093,214.83008 -5.98097,124.63974 7.62781,250.36978 0.86698,374.24609 11.4479,101.45213 2.87525,200.23323 9.21073,301.25783 2.67603,106.1373 2.01657,214.3456 -7.30668,321.3007 -9.04598,96.4713 -6.66699,197.6067 30.83203,287.6993 9.48445,39.3488 50.12956,46.49 80.30078,60 138.5446,39.2404 286.72711,5.0732 428.86329,21.5371 164.46546,15.3004 329.72412,13.0862 493.78112,-4.8588 91.6555,7.2841 183.8935,-4.3147 274.557,-3.5515 90.2172,13.9255 189.1817,16.8598 272.5039,-22.7246 41.3272,-31.2193 50.1515,-82.1027 58.7675,-129.6777 32.6245,-114.2055 6.2012,-231.8448 15.6524,-348.6933 5.6803,-108.6242 9.4139,-218.7478 -2.4919,-326.3105 5.2245,-51.8279 -5.1983,-96.69244 2.9589,-146.61556 5.4685,-69.96872 20.3704,-139.28406 12.2891,-211.1033 2.913,-85.83163 -0.6882,-176.30363 -8.8457,-260 -3.4914,-52.43812 -6.536,-115.77885 -32.1211,-167.10352 -14.1125,-28.75466 -40.8834,-48.11125 -58.4511,-68.89648 -46.6356,-22.83495 -101.3617,-22.19326 -151.9359,-32.37084 -155.1245,-14.88577 -311.7216,-9.56248 -466.1579,-3.62919 -78.8176,0.93742 -168.2542,-2.28474 -250.70315,-5.68949 -78.20816,-0.49581 -157.0277,-0.57894 -236.93127,0.37826 z m -61.81637,29.81805 c 37.98812,1.91223 110.46557,9.43028 161.75546,5.55772 63.97983,-5.36987 125.7659,1.6594 187.35938,-0.98043 191.63375,2.18918 383.44195,-2.44063 574.93035,-1.31717 82.4495,0.4644 173.8281,1.44472 241.7064,54.21561 27.7737,60.94293 41.0949,129.52124 47.0371,196.10937 -1.5057,87.46148 6.9324,174.31925 -6.7409,261.26105 11.179,99.43701 -5.0265,200.18517 -1.9134,300.08272 -1.8655,129.8576 -0.7369,259.7937 0.014,389.8574 8.0097,112.8179 1.8016,226.8741 -5.5754,339.8589 -10.6049,45.2347 -30.1159,104.8422 -86.4319,104.7639 -74.726,24.8181 -151.5962,-4.3757 -226.516,10.9277 -68.8177,10.2246 -6.2096,-104.6074 -75.3436,-131.2489 45.8873,19.6618 108.9196,26.4656 37.5859,-9.5969 -52.9827,-26.7852 -144.2605,-40.07 -156.3801,-43.3707 1.6265,-6.8592 13.2989,-25.0355 19.3385,-34.9744 25.3479,-1.3573 74.0317,9.7066 103.5568,17.4291 27.0997,5.6952 107.6231,74.4457 95.7225,29.9494 -30.2279,-45.447 -144.7372,-54.4677 -145.8705,-81.0334 39.9641,-34.3126 -38.8107,-36.0657 26.9083,-52.4968 57.08,-53.6733 -104.0568,-20.3938 -18.1641,-50.822 24.0008,-4.7524 105.1468,-47.9024 43.661,-50.1961 -43.5123,7.7046 -152.1938,19.2235 -66.0829,-27.4855 74.3673,-64.0132 107.8971,-173.6313 87.5586,-269 -15.7079,-45.5618 -64.0707,-71.5321 -108.3516,-76.8028 123.5293,-99.99986 237.3547,-223.55393 283.6133,-379.05464 22.8029,-121.45216 -12.3851,-249.29664 -93.1172,-341.37695 -53.3673,-39.51823 -119.5731,-72.77663 -188.8105,-62.73047 -55.0586,2.37798 -103.5786,31.7293 -147.166,62.42383 -57.0824,35.47122 -89.1009,95.7327 -114.168,155.74609 -27.2009,53.95171 -40.9218,112.98288 -62.87115,168.80469 -5.39656,42.15304 -30.59902,148.24532 -88.58754,112.54217 C 878.48026,743.9744 896.59517,671.26174 876.23948,607.1881 855.85284,522.65144 810.54453,433.87419 729.10472,395.24279 667.16341,365.60231 591.01391,320.99707 524.468,363.26622 c -63.63956,14.1222 -89.63389,90.75547 -56.54687,144.26953 20.57549,63.49951 100.29104,85.81413 157.47865,60.74416 73.19238,-21.85487 123.39529,52.34327 131.2733,115.57616 25.6068,85.67227 -14.14088,184.12304 31.50195,263.51953 44.93981,61.9132 139.37969,84.6009 204.32617,39.14648 60.439,-45.98622 67.3268,-126.84371 97.0059,-191.64648 22.626,-88.72268 70.4296,-168.99184 124.4848,-241.9503 34.8461,-58.56939 113.2388,-108.02749 179.5152,-72.24697 62.9801,65.88859 40.5247,167.53566 22.6856,247.79688 -17.3368,71.49527 -66.0762,128.97072 -101.3516,192.07617 -49.4806,58.79556 -116.053,103.12082 -175.541,152.07222 -38.5378,22.2642 -79.2624,46.787 -112.0301,75.0702 -7.6674,5.9122 -14.452,11.2711 -22.7796,16.0653 -30.34628,-6.1722 -71.42059,-10.1556 -106.12194,-9.8826 -17.2781,0.1359 -38.68282,1.1536 -57.4264,5.4419 -21.53391,4.9267 -44.68441,16.4819 -62.13049,23.0573 -14.26255,5.3755 -23.52963,8.0101 -29.94513,-11.8536 -32.12658,-57.2484 -99.54305,-96.7541 -165.16695,-72.642 -74.13384,11.7444 -144.51704,75.0798 -148.04594,152.0931 -24.95552,77.1738 22.40831,161.7177 90.02734,197.8828 -23.58401,36.9662 -143.27177,22.4586 -51.4043,61.3321 43.87789,15.3616 -72.39426,35.3813 5.94727,54.0605 25.04288,12.6029 -82.20256,33.522 -7.13867,46.7207 14.42983,12.38 29.77947,41.6002 21.88921,58.3111 -15.72762,4.1328 -27.73147,7.2469 -36.24072,11.23 -40.00369,10.8561 -67.90069,81.6725 -15.63677,27.6777 33.85844,-33.0387 154.96013,-3.2293 58.04883,10.3652 -33.46094,7.8156 -89.33041,55.9807 -17.00782,23.2539 -46.80808,21.718 -91.14842,64.4157 -102.63086,114.3809 9.18303,46.7602 -70.02704,7.5879 -95.54697,-4.0664 -61.11867,-34.1234 -56.51916,-116.3168 -58.45183,-176.9456 5.24137,-83.0578 1.6838,-165.7809 -3.27349,-248.8246 -6.52096,-145.7754 20.59245,-290.3782 2.57512,-436.05207 -1.29576,-146.46086 -12.53926,-293.32635 -13.41404,-440.21094 14.08918,-86.21979 18.26047,-180.80996 70.77411,-253.2174 49.22687,-38.99905 104.71526,-74.03664 170.55422,-75.328 44.87093,-7.6129 89.05194,-5.88675 134.00143,-13.51156 z M 1334.11,331.32366 c 93.1652,-0.10841 177.4755,59.97878 211.416,148.25782 43.6912,92.25862 53.6883,206.67736 3.3028,298.9414 -48.8867,122.06026 -150.8009,210.55995 -247.3887,294.66602 -51.737,28.5183 -126.4843,17.7186 -173.9943,65.6707 -28.1158,13.3716 -56.358,55.4466 -72.6519,57.6627 -7.0672,-5.8394 -9.1344,-13.031 -25.8744,-23.0701 3.5287,-3.5043 14.7467,-11.1509 18.523,-14.4304 44.7721,-38.8826 105.558,-63.1726 149.4234,-101.5009 50.0571,-38.3118 101.9191,-72.10705 139.3144,-124.52341 44.6246,-71.54649 91.5598,-144.06099 110.045,-227.39596 12.2279,-77.17445 30.3919,-170.94909 -24.7363,-235.09818 -26.0138,-27.7107 -57.9112,-30.41998 -90.3183,-24.2969 -86.4571,9.77322 -137.1592,90.47825 -180.3282,157.74218 -25.8299,48.72592 -60.0237,91.37925 -71.9843,145.90821 -17.6543,54.58594 -40.0895,106.47416 -58.6817,160.58398 -21.90494,59.83955 -96.03895,94.23818 -155.47853,67.20899 -67.59465,-20.68047 -78.22142,-97.80662 -70.12606,-158.11106 0.71653,-80.41554 -1.1332,-171.89577 -52.80363,-238.03738 -35.85185,-33.62486 -84.97209,-52.1559 -130.51172,-34.97852 -52.39508,25.76093 -109.96113,-8.79535 -127.76908,-60.78554 -17.40899,-91.53316 106.15325,-141.58205 174.02104,-94.66563 59.06631,19.99078 113.95433,52.95651 146.81836,107.79492 53.68176,81.93068 62.98579,182.41079 65.54503,277.83347 2.98079,51.27372 78.44321,89.50814 108.09754,41.11966 17.01522,-52.21961 39.30125,-124.83417 62.20705,-184.46485 20.0653,-68.85763 49.2014,-136.4222 88.2469,-196.09583 51.9585,-56.07579 126.2398,-102.76227 205.6866,-105.93539 z m -61.7929,30.70118 c -34.3727,26.64306 43.8969,20.36048 0,0 z m 124.3535,16.88281 c -25.7051,20.80163 34.2828,19.30123 0,0 z m -82.1309,27.61523 c -37.9278,39.69586 44.3861,27.4432 0,0 z m -141.2773,11.12696 c -34.6182,7.56642 36.1988,28.30438 0,1e-5 z m -641.65437,2.16797 c -31.08036,16.78122 29.7704,21.89992 0,0 z m 89.40234,1.8496 c -25.15125,15.47817 29.3683,16.64124 0,0 z m 637.70703,1.20508 c -44.904,26.00741 37.139,31.90398 0,0 z m 185.8555,18.24414 c -44.8693,27.09289 35.8892,23.65819 0,0 z m -861.39456,16.47266 c -20.06112,39.90514 43.17058,12.14376 0,0 z m 623.25396,9.73633 c -42.3364,22.92535 45.3911,39.33587 0,0 z m -561.60748,7.27343 c -30.79549,26.39555 31.71239,16.37992 0,0 z m -117.86523,2.35352 c -22.20113,30.19236 72.12464,48.80777 13.53515,3.74219 l -10.09179,-3.58594 z m 75.34179,30.50586 c -34.9808,25.51768 39.58285,22.80068 0,0 z m 878.24222,2.16797 c -53.64,12.18611 6.417,34.11302 0,0 z m -797.68362,8.62305 c -29.01901,21.54283 32.52132,20.25191 0,0 z m 472.32232,9.71484 c -38.8022,26.18287 41.1358,27.94979 0,0 z m -387.04888,7.85156 c -16.93273,32.67191 36.45431,7.5567 0,0 z m -31.57618,3.99414 c -8.67552,27.99842 29.50406,11.06745 0,0 z m 357.67196,24.71094 c -26.1998,26.1304 31.6277,17.77342 0,0 z m 455.4238,6.79688 c -47.7886,18.80607 27.3937,29.96734 0.5742,0.12695 z m -436.0156,14.59179 c -43.5811,21.15687 38.8602,8.60169 0,0 z m -323.97664,14.84961 c -40.18913,23.0535 39.2766,26.31334 0,0 z m 696.71294,13.38867 c -13.6095,24.35247 45.0962,24.11392 0,0 z m -381.6094,17.70899 c -33.9067,32.64374 48.7648,22.41051 0,0 z m 433.7774,25.18164 c -33.5458,38.8047 43.7094,25.53698 0,0 z m -738.96492,2.625 c -19.41871,33.1253 34.6447,10.74761 0,0 z m 701.74222,8.86523 c -33.4232,16.23207 24.1328,30.00695 0,0 z m -425.1992,20.40821 c -37.7533,28.89249 43.6815,20.55069 0,0 z m -248.42193,16.29492 c -32.88491,15.11805 28.49673,22.09742 0,0 z m 684.35943,31.95703 c -26.6394,17.2998 26.3559,17.18743 0,0 z m -469.9297,40.83398 c -37.2245,31.44591 43.6414,21.23719 0,0 z m 452.8633,3.58008 c -43.5512,23.95174 35.1226,22.40218 0,0 z m -682.52155,17.0332 c -44.2235,25.03977 49.25283,19.19594 0,0 z m 49.79102,22.55274 c -39.40109,9.64231 25.86791,23.8033 0,0 z m 618.26763,17.61914 c -48.3149,9.02677 17.545,36.17905 0,0 z m -61.791,8.95703 c -29.6168,15.79719 37.4198,12.88934 0,4e-5 z m -406.334,14.56055 c -33.53623,28.12221 38.7819,33.54225 0,0 z m -92.81646,5.41797 c -33.01156,17.60092 32.5388,23.80439 0,0 z m 63.25195,27.26172 c -32.76995,23.0977 33.49861,13.08985 0,0 z m 439.65821,5.09179 c -16.1031,11.11748 17.5589,10.65651 0,0 z m -428.99219,13.62695 c -30.97701,19.29181 35.04909,20.50222 0,0 z m -123.34766,2.13282 c -32.82429,7.35325 22.53724,21.81376 0,0 z m -17.48828,15.18164 c -35.2655,16.22154 29.70802,37.40817 0,0 z m 554.48243,2.38086 c -36.2806,28.68377 44.6243,20.85517 0,0 z m -501.82618,5.16015 c -26.26353,23.15814 68.8589,36.95589 9.07617,8.58985 1.03023,-5.59569 -4.50993,-8.64959 -9.07617,-8.58985 z m 459.58598,6.96094 c -27.5767,28.57525 39.5385,19.54814 0,0 z m -53.2187,67.91604 c -40.4519,25.9124 30.4872,34.5201 0,0 z m -55.6563,41.621 c -39.3284,23.8213 51.6624,34.4879 0,0 z m 58.3633,59.3711 c 43.9308,9.9539 91.6117,37.8694 92.8679,89.0585 6.6978,64.1467 -15.259,129.6319 -47.8289,182.4493 -23.8174,30.8824 -71.7666,61.3634 -117.9316,49.9083 -86.4924,-22.7259 -4.0907,52.4574 39.6848,20.1437 -7.3612,58.7487 46.2185,33.1953 79.8109,29.8321 25.7091,7.9301 -67.0441,28.5556 -82.0233,49.0551 26.1981,26.9832 119.4204,9.3609 34.5276,36.36 -64.5643,22.3873 72.1123,30.1865 1.334,46.2988 -74.5268,8.3721 -153.2492,16.855 -220.6211,55.584 -25.9619,11.4736 -110.84537,79.5971 -60.9164,86.1513 21.4284,20.1429 72.8623,-23.7458 109.7113,-28.7705 19.469,-3.0263 113.9755,-41.8882 77.1602,-7.875 -22.6902,26.3649 -54.1234,46.9961 -69.8633,80.209 -24.0224,38.1985 -61.7523,78.3294 -119.4707,64.4492 -103.86306,12.7129 -210.3566,20.4846 -314.20318,7.834 -58.91345,-26.818 -37.67731,-118.0981 -113.13086,-132.6191 -47.56265,-26.3525 75.87673,5.7773 99.69141,14.668 33.21852,28.949 136.20373,30.7252 62.29492,-19.0176 -68.56551,-52.1333 -157.29164,-71.7152 -241.96726,-72.2426 0.24709,-55.0319 -75.88789,-75.4546 1.52516,-91.4929 -1.07399,-30.4154 -64.37634,-25.8853 -5.89384,-52.5282 -3.88716,-27.8444 -67.83158,-30.5192 -4.44336,-42.0469 24.97448,-33.5222 165.10639,-28.7818 61.09366,-51.5761 -85.79377,-6.3941 -139.96167,-107.9626 -113.00186,-186.9375 12.5605,-92.9054 128.24276,-147.9962 210.70117,-112.6075 45.31965,29.5661 78.14599,81.3735 85.54169,135.1254 -7.12632,36.7073 4.74147,134.1474 18.1532,53.6589 4.73193,-28.3979 -1.26372,-60.7444 -1.40433,-82.3296 -0.0425,-6.523 -3.86036,-21.9948 -2.07557,-27.5512 2.00316,-6.2363 11.76859,-6.1152 16.46569,-10.7304 26.25369,-11.948 58.65092,-21.6922 76.87682,-24.0298 22.95283,-2.6397 52.90228,-0.2657 69.16169,3.4465 7.15894,1.6345 16.67487,4.7204 16.67487,4.7204 0,0 -10.24716,10.4046 -17.42021,16.1106 -31.26698,24.8722 -50.51112,60.8911 -77.07932,89.3664 4.32754,-29.1941 -3.0564,-46.3337 -12.94057,-58.2309 -16.94466,9.8255 -32.31397,25.4115 -41.73085,40.0652 -9.47032,12.327 -26.35752,71.6837 2.33549,37.7438 17.5848,-60.5857 49.49802,-41.3337 28.78172,14.4226 43.46197,-1.8143 97.20851,-93.6023 97.20851,-93.6023 0,0 -8.4852,67.3044 -2.19726,96.5644 19.70297,-4.9413 50.94995,-79.9208 62.15793,-31.2319 2.79523,12.1428 2.24788,16.4715 9.52084,14.9561 19.2434,-4.0094 47.9836,-33.8358 40.0026,22.3439 2.002,23.4794 8.7417,29.5071 18.1574,23.1237 9.6822,-6.5641 4.0291,-22.0875 -0.8368,-40.9418 -18.6302,-82.464 58.1938,-140.1223 119.9805,-175.8574 47.0551,-19.7356 75.9194,-13.9639 135.5586,-21.43 z m -703.41412,39.9805 c -57.49291,-0.6957 -78.6003,49.0483 -102.14453,90.2773 -31.32109,47.2565 -6.6679,108.4924 38.66597,134.9375 24.49638,19.4357 88.2981,50.9205 101.11647,7.9207 -48.73472,3.5696 -102.4306,-25.0379 -128.47823,-70.8728 -7.43157,-55.9107 31.01584,-138.3303 96.83374,-136.2512 55.53828,14.2009 76.44844,77.6373 95.36982,125.7229 -27.61701,42.2856 -1.31206,84.0366 21.95898,19.5625 10.7472,-62.7209 -38.52967,-121.4633 -75.94336,-162.0274 -15.38512,-4.8055 -31.26862,-8.1868 -47.37886,-9.2695 z m 653.49032,6.9219 c -62.3491,-5.819 -114.2678,38.4965 -155.6446,78.9965 -24.3173,31.3014 -26.5267,93.2811 20.6915,97.7225 -41.9135,-68.6021 33.1492,-124.3056 93.9843,-145.7206 52.5944,-27.7357 122.2282,22.0343 92.9434,80.6699 1.1987,55.182 -41.7073,85.3865 -88.0352,101.3125 -18.9339,44.4768 63.6052,-5.2114 78.4277,-22.4824 34.2356,-39.891 45.3013,-108.2877 30.6841,-158.1196 -18.8593,-20.0544 -43.3036,-36.6697 -73.0512,-32.3788 z m -293.76545,21.0739 c 55.37605,2.3941 90.21765,46.587 60.25645,93.2861 -35.67709,22.8139 -29.1996,-38.2077 -34.78299,-41.9254 -4.79208,1.5023 -10.37466,6.4375 -20.66357,19.6684 -10.96775,10.5156 -24.89488,10.7267 -24.89488,10.7267 0,0 1.60175,-62.5455 7.949,-81.787 1.19036,-0.03 9.37937,-0.033 12.13599,0.031 z m 237.66575,22.0062 c -38.4062,24.2028 47.8973,26.8765 0,0 z m -598.97851,1.457 c -24.1384,20.01 34.644,12.396 0,0 z m 667.73831,1.793 c -48.0343,8.9624 -5.364,43.0319 8.2305,7.4218 l -2.5684,-4.0234 z m -635.05667,13.2382 c -36.53589,28.2878 33.31917,21.4951 0,0 z m 527.91217,4.3731 c -24.1694,24.4492 42.0255,16.2608 0,0 z m -617.15631,0.6269 c -17.66992,9.3069 15.40993,13.9689 0,0 z m 731.82031,12.9121 c -29.913,30.9508 41.0145,22.0661 0,0 z m -731.71094,7.9336 c -15.22863,44.3936 51.77614,2.5751 0,0 z m 56.47852,11.3262 c -42.91247,27.6222 44.29484,21.7858 0,0 z m 628.92972,2.5352 c -30.0724,29.1168 40.1262,16.3127 0,0 z m -53.5488,2.9414 c -33.4097,23.7875 49.2389,12.9298 0,0 z m -503.01764,0.5019 c -45.18955,27.8504 44.94773,17.281 0,0 z m -134.5293,7.9805 c -47.98129,28.2305 51.61489,26.8932 0,0 z m 726.97274,11.5352 c -37.1033,22.9353 44.4336,28.2292 0,0 z m -133.1446,7.0371 c -24.0425,22.9747 34.1319,5.0587 0,0 z m -566.75196,0.664 c -39.43218,23.8387 50.12411,12.6681 0,0 z m 624.49416,0.461 c -30.0766,48.2864 37.0174,18.6594 0,0 z m -562.24221,4.2851 c -44.49792,16.7547 28.29994,30.9169 0,0 z m -60.43945,25.9551 c -23.12224,45.7498 41.50677,17.9535 0,0 z m 608.97466,1.1738 c -30.237,13.1162 -31.7312,45.0467 7.7048,13.5675 2.5807,-5.8234 0.4513,-15.0729 -7.7048,-13.5675 z m 65.1621,2.9453 c -39.0971,16.3673 35.3861,31.0011 0,0 z m -583.3145,2.0215 c -58.2748,49.04 32.05185,39.6973 0,0 z m -55.55859,25.2559 c -39.93198,24.2291 38.93079,18.0688 0,0 z m 28.60156,12.8613 c -20.4938,11.0337 16.94368,10.1793 0,0 z m -58.69922,117.1895 c -32.32857,21.5358 31.49636,26.4827 0,0 z m 623.79495,13.2695 c -30.4834,25.4353 38.4242,9.7679 0,0 z m -470.418,40.9512 c -37.54281,-0.462 -105.5258,34.3038 -86.40427,94.9358 19.12153,60.632 143.0926,48.8825 129.19507,-22.2539 15.19002,-44.762 56.88853,83.1728 56.78978,112.7591 47.82674,-3.9898 -7.46803,-103.2703 -16.76043,-142.6127 -13.93292,-29.6858 -45.27734,-42.3663 -82.82015,-42.8283 z m 352.5586,5.1328 c -64.4278,-7.0179 -90.22602,38.2543 -105.21875,95.539 -11.33606,56.6232 -10.88904,115.6473 -88.50196,92.6856 -60.9405,-15.506 -128.61023,38.5714 -80.90625,95.5098 46.67253,40.3493 157.77701,23.3145 182.22071,-37.42 0.3278,-59.1256 -15.0646,-120.8949 21.89845,-178.6699 -4.5193,17.2082 51.3487,92.1494 98.5243,46.3552 55.7307,-28.9648 30.8598,-108.549 -28.0165,-113.9997 z m 133.3828,2.2929 c -25.5648,13.382 30.5491,19.7581 0,0 z m -671.55272,17.5235 c -18.60426,34.2115 42.60769,4.8675 0,0 z m 527.30082,4.4844 c 54.6683,46.1549 -54.2224,62.5351 -15.8953,6.9773 3.4717,-6.679 11.745,-0.8023 15.8953,-6.9773 z m -368.74614,1.4199 c 33.05448,6.8464 -1.09859,74.183 -26.84266,46.6776 -14.09437,-23.8345 3.65356,-41.1107 26.84266,-46.6776 z m 549.47464,7.2969 c -25.6313,25.1322 33.051,21.6721 0,0 z m -694.74807,27.3437 c -19.56015,30.4461 32.70149,6.4467 0,0 z m 189.92773,15.4824 c 6.73229,19.1345 -23.65274,22.1099 0,-2e-4 z m 358.18164,10.8457 c 0.5499,16.13 -39.2031,5.0603 0,0 z m 155.8536,19.7032 c -3.4435,14.1705 -10.4675,20.9486 -14.4542,31.28 -0.5943,1.5402 -8.4647,2.347 -10.1017,2.678 -37.6237,7.607 -73.3984,8.9189 -101.5555,25.0339 -39.3953,5.8716 -137.388,70.9369 -70.4687,10.0215 56.5451,-44.4575 126.5177,-61.5947 196.5801,-69.0134 z m -704.30477,41.1132 c 68.47555,4.9342 138.0079,25.7243 193.93555,65.7051 -60.32311,-20.7786 -121.65867,-45.7777 -186.5075,-48.2759 -0.58323,-4.2361 -11.65904,-17.1019 -7.42805,-17.4292 z m 714.90437,12.8496 c 39.4907,15.0503 -79.8236,6.7176 0,-5e-4 z m 20.8945,33.0332 c 44.8636,2.7947 101.6539,16.6846 112.793,68.8399 9.5297,30.4464 13.4218,51.2558 10.112,61.8533 -35.9606,-1.5609 -49.2678,3.3443 -70.343,-1.8799 -15.1269,-22.6455 9.2633,-100.3281 -36.6948,-58.4675 15.8743,25.0464 9.0666,38.5375 5.6917,59.684 -18.9717,2.4521 -46.144,3.0674 -66.7339,-6.7377 2.5545,-24.1759 -1.5442,-43.1934 -3.8445,-51.5542 -1.7741,-1.9571 -17.7936,-1.7623 -19.447,0.9269 -3.1519,5.1265 -1.4882,16.5598 1.1288,33.5472 0.9804,8.221 -3.2634,13.313 -7.1504,20.4397 -27.7085,2.4488 -61.56,6.0394 -77.4248,-1.4914 3.9104,-12.7559 9.1767,-20.547 19.6512,-40.6192 28.8912,-46.7701 72.8118,-88.8859 132.2617,-84.5411 z m -377.01205,22.5845 c 9.17361,20.2773 6.10055,47.6534 3.82244,57.8719 -3.7822,1.5918 -8.50958,3.9919 -11.31833,-1.5088 -2.41439,-4.7284 -4.27222,-14.6773 -4.59966,-31.6972 0.10989,-18.2514 -8.84179,-22.2528 12.09555,-24.6659 z m -33.98791,1.6482 c 4.38936,17.5633 4.63578,45.6723 2.24046,57.9658 -7.87456,4.2321 -22.22509,-3.9369 -30.13005,-6.8724 -1.13324,-16.4647 -5.29443,-28.1332 -4.00545,-46.9511 4.87757,-3.0428 19.44926,-2.7869 31.89504,-4.1423 z m -343.22665,-6.4143 c 51.07123,4.3362 106.19192,37.826 110.01172,92.8616 23.19008,39.3051 -53.34619,30.6564 -72.40118,29.4358 -4.21468,-14.1566 -5.1196,-32.6704 -2.86941,-58.0136 -39.72269,-20.7238 -20.16766,35.4712 -32.32086,58.058 -15.20689,3.3795 -26.08677,4.4107 -39.13779,0.3544 -4.23445,-0.5027 -7.65018,-1.4964 -9.51913,-4.6634 -12.4185,-21.0437 21.50421,-91.56 -16.47624,-44.8391 3.53125,59.7239 -27.16762,51.4712 -76.00976,51.375 0.79147,-65.1021 75.82127,-124.4997 138.72265,-124.5687 z m 525.71101,20.5176 c -28.6094,15.1118 30.9927,27.2697 0,2e-4 z m -363.39265,17.3711 c -33.48884,20.1009 32.23631,37.5827 0,0 z m 300.56835,3.3808 c -31.29088,25.949 48.4811,27.2725 0,0 z m -248.83592,0.8516 c -36.065,18.7969 29.03544,24.038 0,0 z m 308.67972,6.502 c -39.1273,10.2405 22.0557,38.995 0,0 z m -43.5098,28.3789 c -29.2128,25.1183 39.0048,21.1215 0,0 z m -278.12305,11.2129 c -39.84062,32.941 37.63351,25.3329 0,0 z"
           sodipodi:nodetypes="scccssccsssssssssssssscsscsssssssscsssscccsccssscsscscccscsssssssssscsccccascssssscccssssssssscscsscscccscsccsssssssccscssccsssccssssssssssssssssssssccsssccsssssssssssssssssssssssssssccccsssssssssssssssssccssssssssssssssssssssscssscssssssssscssssssscsssssssccccccccssccsscscccssscsssccsssssccsssccccccccssccsscsssssccssccccssssssssssccssssssssssssssssssssszzsssszssssssssssssssssssssssssssccsscscssssscscsccccccscccccsccccccccccsccccscssssssssssssccssss" />
        <path
           d="m 579.73619,1196.6571 c 3.15045,-0.028 6.41742,-0.1566 9.4266,0.9301 1.6449,0.5582 2.87628,2.0886 2.98627,3.8336 0.11934,2.1943 0.0701,4.5431 -0.99219,6.5238 -0.96115,1.7789 -3.1477,2.2979 -5.0226,2.1865 -1.78086,-0.117 -3.55676,-0.4058 -5.34795,-0.2626 -2.59212,0.1025 -5.16617,0.5532 -7.62981,1.3655 -1.99306,0.5351 -4.45954,0.5067 -5.92074,-1.1635 -1.67241,-1.984 -1.67788,-4.7722 -1.45007,-7.224 0.11346,-2.1061 1.81076,-3.7304 3.70036,-4.4215 3.25924,-1.2618 6.81584,-1.3753 10.25013,-1.7679 z"
           style="fill:#000000;stroke:#000000;stroke-width:1"
           id="path37777"
           sodipodi:nodetypes="cssscc" />
      </g>
    </g>
  </g>
</svg>
